<svg height="512pt" viewBox="0 0 512 512" width="512pt" xmlns="http://www.w3.org/2000/svg"><path d="m512 256c0 141.386719-114.613281 256-256 256s-256-114.613281-256-256 114.613281-256 256-256 256 114.613281 256 256zm0 0" fill="#f92814"/><path d="m512 256c0-7.667969-.355469-15.25-1.015625-22.742188l-109.824219-108.957031-283.9375 270.105469 115.496094 116.527344c7.667969.695312 15.429688 1.066406 23.28125 1.066406 141.386719 0 256-114.613281 256-256zm0 0" fill="#db0404"/><path d="m452 256c0 108.246094-87.753906 196-196 196s-196-87.753906-196-196 87.753906-196 196-196 196 87.753906 196 196zm0 0" fill="#ffd400"/><path d="m256 60v392c108.246094 0 196-87.753906 196-196s-87.753906-196-196-196zm0 0" fill="#fdba12"/><path d="m340.578125 381.585938c-3.914063-14.910157-11.777344-28.589844-22.738281-39.550782-34.097656-34.097656-89.578125-34.097656-123.679688 0-10.960937 10.960938-18.824218 24.640625-22.734375 39.550782l-29.019531-7.613282c5.257812-20.050781 15.820312-38.429687 30.539062-53.152344 45.796876-45.792968 120.3125-45.792968 166.105469 0 14.722657 14.71875 25.28125 33.101563 30.542969 53.152344zm0 0" fill="#414952"/><path d="m339.050781 320.820312c-22.898437-22.894531-52.972656-34.34375-83.050781-34.34375v29.984376c22.394531 0 44.789062 8.523437 61.839844 25.574218 10.960937 10.960938 18.824218 24.640625 22.738281 39.550782l29.015625-7.613282c-5.257812-20.050781-15.820312-38.429687-30.542969-53.152344zm0 0" fill="#333940"/><path d="m196.472656 205.933594c0 18.539062-15.027344 33.566406-33.566406 33.566406s-33.570312-15.027344-33.570312-33.566406zm0 0" fill="#414952"/><path d="m382.664062 205.933594c0 18.539062-15.03125 33.566406-33.570312 33.566406s-33.566406-15.027344-33.566406-33.566406zm0 0" fill="#333940"/></svg>