<?xml version="1.0" encoding="iso-8859-1"?>
<!-- Generator: Adobe Illustrator 19.0.0, SVG Export Plug-In . SVG Version: 6.00 Build 0)  -->
<svg version="1.1" id="Capa_1" xmlns="http://www.w3.org/2000/svg" xmlns:xlink="http://www.w3.org/1999/xlink" x="0px" y="0px"
	 viewBox="0 0 512 512" style="enable-background:new 0 0 512 512;" xml:space="preserve">
<path style="fill:#FF9F00;" d="M256,512c-68.113,0-132.327-26.702-180.812-75.188C26.702,388.327,0,324.113,0,256
	S26.702,123.673,75.188,75.188C123.673,26.702,187.887,0,256,0s132.327,26.702,180.812,75.188C485.298,123.673,512,187.887,512,256
	s-26.702,132.327-75.188,180.812C388.327,485.298,324.113,512,256,512z"/>
<path style="fill:#FF7816;" d="M436.812,75.188C388.327,26.702,324.113,0,256,0v512c68.113,0,132.327-26.702,180.812-75.188
	C485.298,388.327,512,324.113,512,256S485.298,123.673,436.812,75.188z"/>
<path style="fill:#293939;" d="M346,241c-24.813,0-45-20.187-45-45s20.187-45,45-45s45,20.187,45,45S370.813,241,346,241z"/>
<g>
	<path style="fill:#384949;" d="M166,241c-24.813,0-45-20.187-45-45s20.187-45,45-45s45,20.187,45,45S190.813,241,166,241z"/>
	<rect x="151" y="361" style="fill:#384949;" width="210" height="30"/>
</g>
<rect x="256" y="361" style="fill:#293939;" width="105" height="30"/>
<g>
</g>
<g>
</g>
<g>
</g>
<g>
</g>
<g>
</g>
<g>
</g>
<g>
</g>
<g>
</g>
<g>
</g>
<g>
</g>
<g>
</g>
<g>
</g>
<g>
</g>
<g>
</g>
<g>
</g>
</svg>
